<svg xmlns="http://www.w3.org/2000/svg" width="133" height="28" viewBox="0 0 133 28">
    <g fill="none" fill-rule="evenodd">
        <g fill-rule="nonzero">
            <g>
                <path fill="#FFF" d="M115.087 7.91c-.276-.049-.556-.088-.844-.112-.286-.024-.566-.038-.843-.038-.847 0-1.701.136-2.562.412-.861.277-1.641.672-2.338 1.197-.7.526-1.267 1.19-1.701 2.002-.438.813-.655 1.764-.655 2.864V27.52h2.993V14.235c0-.599.119-1.124.357-1.572.238-.448.556-.83.956-1.141.398-.312.86-.543 1.385-.693.526-.15 1.086-.224 1.684-.224.273 0 .535.007.787.018.249.014.511.045.788.094V7.91h-.007zm5.95 11.413h11.9v-5.127c0-1.071-.214-2.016-.637-2.825-.424-.812-.987-1.484-1.684-2.019-.7-.536-1.49-.934-2.376-1.197-.886-.262-1.792-.392-2.713-.392-.948 0-1.872.13-2.768.392-.9.263-1.698.662-2.394 1.197-.7.535-1.267 1.211-1.701 2.02-.438.812-.654 1.753-.654 2.824v7.259c0 1.075.216 2.016.654 2.825.438.811 1.004 1.483 1.701 2.019.697.535 1.498.934 2.394 1.197.9.263 1.82.392 2.769.392.696 0 1.396-.088 2.096-.263.697-.174 1.355-.44 1.964-.805.612-.36 1.172-.805 1.683-1.33.511-.524.942-1.147 1.292-1.872l-2.618-1.123c-.4.899-1.019 1.56-1.852 1.984-.836.424-1.69.637-2.562.637-.574 0-1.13-.07-1.666-.206-.535-.137-1.018-.35-1.442-.637-.424-.288-.763-.641-1.011-1.068-.249-.423-.375-.934-.375-1.533v-2.349zm9.054-2.506h-9.054v-2.694c0-.599.112-1.124.336-1.572.224-.448.542-.822.956-1.123.413-.302.892-.529 1.442-.694.549-.16 1.133-.245 1.76-.245.55 0 1.099.081 1.645.245.55.162 1.036.393 1.46.694.423.3.773.668 1.046 1.102.273.438.413.942.413 1.516v2.771h-.004z" transform="translate(-415 -21) translate(415 21)"/>
                <path fill="#009FE3" d="M79.516 26.229c1.31 1.11 3.336 1.666 6.08 1.666 1.197 0 2.425-.13 3.685-.392 1.26-.262 2.465-.605 3.612-1.029V14.648c0-1.173-.216-2.188-.654-3.049-.438-.861-1.011-1.579-1.722-2.152-.71-.574-1.522-.998-2.432-1.274-.91-.274-1.852-.413-2.825-.413-1.348.024-2.6.287-3.763.787-1.158.5-2.24 1.323-3.237 2.471l2.544 2.733c.473-.5 1.093-.923 1.852-1.274.76-.35 1.501-.524 2.226-.524.798 0 1.498.192 2.096.58.599.389.9 1.093.9 2.115v1.386c-1.148-.4-2.296-.599-3.444-.599-.875 0-1.729.119-2.562.357-.837.238-1.572.612-2.209 1.124-.636.51-1.147 1.165-1.532 1.963-.389.798-.582 1.76-.582 2.88.004 1.87.658 3.36 1.967 4.47zm8.215-2.6c-.672.174-1.41.262-2.209.262-1.046 0-1.816-.206-2.303-.616-.486-.413-.727-.966-.727-1.666 0-.697.23-1.267.692-1.701.463-.438 1.19-.655 2.188-.655.424 0 .847.046 1.274.13.424.088.787.193 1.085.319v3.926zm9.261-17.983c.584.612 1.316.917 2.188.917.948 0 1.707-.305 2.281-.917.575-.613.862-1.355.862-2.226 0-.872-.287-1.61-.861-2.209-.575-.599-1.334-.9-2.282-.9-.876 0-1.604.302-2.188.9-.588.599-.879 1.334-.879 2.208 0 .872.291 1.614.879 2.227zm-.319 2.45v19.421h5.201V8.095h-5.2z" transform="translate(-415 -21) translate(415 21)"/>
                <path fill="#FFF" d="M.238 27.517h2.993V11.389c.399-.273.91-.493 1.532-.654.623-.162 1.274-.245 1.947-.245.598 0 1.165.063 1.7.185.536.126 1.015.304 1.442.542.424.239.76.55 1.012.935.248.389.374.844.374 1.365v13.997h2.92V13.3c0-.448.126-.847.374-1.197.248-.35.56-.64.934-.878.375-.239.792-.417 1.254-.543.462-.126.917-.186 1.364-.186.55 0 1.085.05 1.61.151.526.101.988.287 1.387.56.399.276.717.644.955 1.102.238.463.357 1.03.357 1.702v13.51h2.992V14.233c0-1.123-.182-2.089-.542-2.901-.36-.812-.868-1.477-1.515-2.002-.648-.525-1.418-.917-2.303-1.18-.886-.262-1.852-.391-2.902-.391-.9 0-1.852.181-2.863.542-1.011.36-1.876.917-2.6 1.666-.75-.774-1.642-1.334-2.675-1.684-1.035-.35-2.089-.525-3.16-.525-1.173 0-2.338.168-3.5.505C2.166 8.6 1.137 9.02.238 9.517v18zm33.156-8.194h11.9v-5.127c0-1.071-.214-2.016-.637-2.825-.424-.812-.987-1.484-1.684-2.019-.7-.536-1.491-.934-2.377-1.197-.885-.262-1.791-.392-2.712-.392-.949 0-1.873.13-2.769.392-.899.263-1.697.662-2.394 1.197-.7.535-1.266 1.211-1.7 2.02-.438.812-.655 1.753-.655 2.824v7.259c0 1.075.217 2.016.654 2.825.438.811 1.005 1.483 1.701 2.019.697.535 1.498.934 2.395 1.197.899.263 1.82.392 2.768.392.697 0 1.397-.088 2.096-.263.697-.174 1.355-.44 1.964-.805.612-.36 1.172-.805 1.683-1.33.511-.524.942-1.147 1.292-1.872l-2.618-1.123c-.399.899-1.019 1.56-1.852 1.984-.836.424-1.69.637-2.561.637-.575 0-1.131-.07-1.666-.206-.536-.137-1.019-.35-1.443-.637-.423-.288-.763-.641-1.011-1.068-.248-.423-.374-.934-.374-1.533v-2.349zm9.058-2.506h-9.055v-2.694c0-.599.112-1.124.336-1.572.224-.448.543-.822.956-1.123.413-.302.892-.529 1.441-.694.55-.16 1.134-.245 1.761-.245.55 0 1.099.081 1.645.245.55.162 1.036.393 1.46.694.423.3.773.668 1.046 1.102.273.438.413.942.413 1.516v2.771h-.003zM64.567 1.323h-2.992v7.672c-.7-.448-1.422-.76-2.17-.934-.75-.175-1.533-.263-2.36-.263-.948 0-1.865.143-2.75.43-.886.287-1.684.7-2.395 1.236-.71.535-1.277 1.211-1.7 2.02-.424.812-.638 1.739-.638 2.789v7.186c0 1.074.21 2.009.637 2.806.424.799.987 1.467 1.684 2.002.697.536 1.491.935 2.377 1.198.885.262 1.788.405 2.712.43 1.246 0 2.506-.126 3.78-.375 1.274-.248 2.544-.584 3.819-1.011V1.323h-.004zm-9.209 23.632c-.525-.185-.99-.448-1.403-.787-.413-.337-.742-.735-.99-1.197-.249-.462-.375-.98-.375-1.555V14.27c0-.623.126-1.18.374-1.666.249-.487.585-.886 1.012-1.197.424-.312.9-.55 1.421-.711.525-.161 1.071-.245 1.645-.245.724 0 1.477.088 2.264.262.788.176 1.54.449 2.265.823v13.136c-.725.223-1.484.374-2.282.447-.798.074-1.572.113-2.32.113-.55.003-1.085-.088-1.61-.277zm14.802-20.73c.413.413.903.615 1.477.615.599 0 1.099-.206 1.498-.615.399-.413.599-.903.599-1.477 0-.599-.2-1.1-.599-1.499-.399-.399-.9-.598-1.498-.598-.574 0-1.068.2-1.477.599-.413.399-.616.899-.616 1.498 0 .57.203 1.063.616 1.476zm.056 3.909v19.383h2.993V8.134h-2.993z" transform="translate(-415 -21) translate(415 21)"/>
            </g>
        </g>
    </g>
</svg>
